<?xml version="1.0" encoding="iso-8859-1"?>
<!-- Generator: Adobe Illustrator 18.0.0, SVG Export Plug-In . SVG Version: 6.00 Build 0)  -->
<!DOCTYPE svg PUBLIC "-//W3C//DTD SVG 1.1//EN" "http://www.w3.org/Graphics/SVG/1.1/DTD/svg11.dtd">
<svg version="1.1" id="Capa_1" xmlns="http://www.w3.org/2000/svg" xmlns:xlink="http://www.w3.org/1999/xlink" x="0px" y="0px"
	 viewBox="0 0 297.611 297.611" style="enable-background:new 0 0 297.611 297.611;" xml:space="preserve">
<g>
	<path d="M183.436,203.091c-6.564,0-11.905,5.341-11.905,11.906c0,6.564,5.341,11.905,11.905,11.905
		c6.565,0,11.906-5.341,11.906-11.905C195.342,208.432,190.001,203.091,183.436,203.091z"/>
	<path d="M114.174,155.999c-6.564,0-11.905,5.341-11.905,11.906s5.341,11.906,11.905,11.906c6.565,0,11.906-5.341,11.906-11.906
		S120.74,155.999,114.174,155.999z"/>
	<path d="M255.503,281.779l-12.279-203.32c-0.477-7.883-7.008-14.032-14.905-14.032h-27.335V52.179
		C200.984,23.407,177.577,0,148.805,0c-28.771,0-52.179,23.407-52.179,52.179v12.248H69.293c-7.897,0-14.429,6.149-14.905,14.032
		l-12.279,203.32c-0.248,4.108,1.211,8.138,4.033,11.136c2.821,2.997,6.755,4.696,10.872,4.696h183.585
		c4.117,0,8.051-1.699,10.872-4.696C254.293,289.917,255.751,285.888,255.503,281.779z M124.626,52.179
		c0-13.332,10.847-24.179,24.179-24.179c13.332,0,24.179,10.847,24.179,24.179v12.248h-48.357V52.179z M87.269,167.905
		c0-14.836,12.069-26.906,26.905-26.906s26.906,12.07,26.906,26.906c0,14.836-12.07,26.906-26.906,26.906
		S87.269,182.741,87.269,167.905z M122.802,249.778c-1.144,0-2.304-0.263-3.394-0.816c-3.692-1.877-5.163-6.393-3.286-10.085
		l51.682-101.65c1.878-3.691,6.392-5.162,10.085-3.286c3.692,1.877,5.163,6.392,3.286,10.085l-51.682,101.65
		C128.17,248.278,125.535,249.778,122.802,249.778z M183.436,241.902c-14.836,0-26.905-12.069-26.905-26.905
		c0-14.836,12.069-26.906,26.905-26.906c14.836,0,26.906,12.07,26.906,26.906C210.342,229.833,198.272,241.902,183.436,241.902z"/>
</g>
<g>
</g>
<g>
</g>
<g>
</g>
<g>
</g>
<g>
</g>
<g>
</g>
<g>
</g>
<g>
</g>
<g>
</g>
<g>
</g>
<g>
</g>
<g>
</g>
<g>
</g>
<g>
</g>
<g>
</g>
</svg>
